<svg xmlns="http://www.w3.org/2000/svg" viewBox="0 0 2751.73 636.78"><defs><style>.cls-1{fill:#68b449;}.cls-2{fill:#7a7777;}.cls-3{fill:#e63d3b;}.cls-4{fill:#ebdd4a;}.cls-5{fill:#fbc361;}.cls-6{fill:#7f7c7c;}.cls-7{fill:#fde33d;}.cls-8{fill:#ed6e55;}.cls-9{fill:#cad268;}.cls-10{fill:#f4a062;}.cls-11{fill:#a4c76b;}.cls-12{fill:#f29369;}.cls-13{font-size:82.16px;fill:#6a6a69;font-family:Roboto-Regular, Roboto;}.cls-14{fill:#96b7e0;}.cls-15{fill:#b865a8;}.cls-16{fill:#8c8dc5;}.cls-17{fill:#9076b5;}.cls-18{fill:#ffc433;}.cls-19{fill:#fffeff;}</style></defs><g id="Layer_2" data-name="Layer 2"><g id="Layer_1-2" data-name="Layer 1"><path class="cls-1" d="M1605.56,269.7c-8.52,26.57-24.36,12.81-38.79,6.84V194.3c14.39-5.84,30.31-20,38.62,7,.42,8.13-6.62,21.82,7.52,21.22,9.09-.39,7.39-12.53,2.53-20.31q.39-26.13.78-52.26c.17-11.61.71-24.18,16.33-24.36,15.07-.17,17.41,11.22,17.4,23.54,0,24.89.33,49.77.53,74.66a28.13,28.13,0,0,1,0,23.34c-.19,20.79.4,41.63-.85,62.35-.79,13.11,7.5,33.9-15.5,34.52-26.36.7-16-22.3-17.92-36.06-1.69-12-.53-24.4-.63-36.63,2.94-9,8.79-22-5.34-22.76C1600.64,248,1605.18,261.84,1605.56,269.7Z"/><path class="cls-2" d="M2719.56,171.87c-19.22-.55-38.53-2.55-57.63-1.33-31.87,2-46.55,22.1-48,51.77s20.23,52.21,49.46,55c14.51,1.38,29.6-7.25,45,2.94-11,27.7-35.06,18.89-54.42,18.53-29.21-.55-50.27-16.6-61.22-42.4-13.07-30.8-10.94-61.91,13.9-86.41,26.81-26.44,60.13-27.66,94.54-15.76,6.06,2.09,10.56,12.45,18.36,2.72Z"/><path class="cls-3" d="M1976.81,225.41q.54-59.61,1.07-119.22c.11-11.65.71-23.67,16.25-24.63,18.24-1.12,19.26,12,19.27,25.17,0,38.36,0,76.73,0,117.52,20.75-14.32-7.16-55.27,30.79-50.9,27,3.1,7.56,32.28,20.16,50.62,9.82,4.6,22.26-28,35.9-4.72,6.69,11.39,7.26,23.91-2.18,34.65-15.2,17.3-22.22-8.69-34.7-7.27-13.65,15.16,10.09,49.75-21.93,51.05-33.57,1.36-8.61-35.62-28-52,0,30.24-1.15,57.13.41,83.87,1,17.21-7.56,27.29-21.93,27.44-14.73.15-13.83-14.73-14-25.86-.43-28.56-.73-57.12-1.09-85.68Z"/><path class="cls-4" d="M1786.59,246.05q.11,46.53.21,93.05c0,12.53,1.15,27.31-16.49,28-19.68.81-20.11-14.86-20.31-28.88-.43-31-.58-62-.84-93V225.61c.25-64.37.39-128.75.86-193.12.11-14.56-2.34-33.14,20.07-32.47,20.35.61,16.54,18.37,16.59,31.29.27,64.38,0,128.77,0,193.15Z"/><path class="cls-5" d="M1885.45,245.55c-15.54,27.58-4.28,57.41-7.24,86.07-1.51,14.62,1.75,33.52-20.21,32.17-18.78-1.16-14.65-19.13-16.43-32.26-3.84-28.21,10.23-58.29-9-84.86a24.13,24.13,0,0,0,.27-23c15.4-7.84,8.34-22,8.56-33.25.89-44.82.36-89.66.46-134.5,0-11.85,2.1-24.19,16.58-25.09C1875.75,29.76,1878,43,1878,56.4c0,44.84-.43,89.68.37,134.51.2,11.53-6,25.17,7.13,34.38Q1885.46,235.42,1885.45,245.55Z"/><path class="cls-6" d="M2312.1,222.33c0-2.48-.64-5.17.1-7.41,7.74-23.54-22.1-64.82,33-66,56.67-1.24,87.51,19.58,92.84,64.83,5.08,43.18-20.6,78.7-61.06,84.45C2316.87,306.71,2312.1,301.14,2312.1,222.33Zm97.16,2.74c-.28-4.95,0-10-.93-14.82-5.36-27.76-23.68-40.12-51.13-38.57-30.83,1.74-13.9,25.77-16.86,39.79-2.51,11.87.8,24.84-.77,37-4.21,32.82,16.51,31.4,37.11,25.31C2399.89,267,2410,248.93,2409.26,225.07Z"/><path class="cls-7" d="M1832.84,223.68a24.13,24.13,0,0,1-.27,23c-.06,21.12.46,42.27-.38,63.36-.55,13.64,5.85,34.2-18.08,33.08-22.29-1.05-14.83-21.28-17.65-34.88-4.29-20.6,11.5-44.31-9.87-62.18l.09-21.59c18.89-14.05,7.86-34,9.54-51.07,2-19.71-.24-39.78.68-59.63.7-15-6.56-37.69,17.11-38.75,25.54-1.14,17.68,22.29,18.09,36.79C1833.14,149.07,1832.69,186.38,1832.84,223.68Z"/><path class="cls-8" d="M1976.81,225.41v20c-16.36,23.47-4.55,49.8-7.55,74.64-1.52,12.57.12,26.47-18.25,26.36-17.6-.11-18.76-13.08-18.89-26.23-.23-24.82-.57-49.64-.87-74.46V225.1c.32-29.85.36-59.7,1.12-89.54.3-11.54,2.41-23.48,18.17-23.07,14.81.39,17.06,11.05,18.63,23.17C1973,165.49,1960.05,196.71,1976.81,225.41Z"/><path class="cls-2" d="M2273.32,299.49c-2-3.28-4.89-8.77-8.48-13.76-25-34.87-54.73-34.89-81.57-.34-4.41,5.68-8.73,14.22-17.42,10.95-11.25-4.23-7.88-14.25-4.9-22.26,13.38-36.1,27.38-72,40.84-108,3.85-10.31,9.8-17.17,21.66-17.32,11.61-.15,19.1,5.87,23,16.06,13.62,36,27.36,72,40.06,108.32C2289.45,281.63,2292.89,292.89,2273.32,299.49Zm-51.41-121.08c-3.87,22.59-22.51,38.85-12.86,58.25,3.29,6.62,28,6.41,30.65-.79C2246.85,216.24,2233.69,198.94,2221.91,178.41Z"/><path class="cls-2" d="M2511.93,299.82c-9.78-.48-16.12-.4-22.35-1.17-11.19-1.4-27.23-2.53-26-15.58,1.6-16.59,16.79-8.47,27.23-7a89.33,89.33,0,0,0,15.05,1c12.3-.31,27.42,2.5,30.93-13.86,3.32-15.49-8.4-21.3-21.51-25.4a278.62,278.62,0,0,1-35-13.61c-19.09-9-22.22-25.65-19.53-44.16s15-28,32.82-30.91a89.69,89.69,0,0,1,22.59-1.14c15.48,1.5,41.38-3.31,40.48,15.81-1,21.05-24,3.85-36.9,6.1-12,2.08-27.08-2.19-29.57,15.14-1.95,13.63,9,19.21,20,23.37,4.7,1.77,9.56,3.12,14.32,4.72,25.28,8.48,48.46,19.72,42.27,51.9C2560.66,296.73,2535,299.73,2511.93,299.82Z"/><path class="cls-9" d="M1749.16,225.61v19.63c-14.39,10.16-6,25-7.58,37.7-1.55,12.05-3.49,23.17-18.5,22.93-14.54-.24-18.1-11.47-18.82-23.29-.75-12.36-.56-24.78-.79-37.17v-20c.22-12.15.14-24.32.73-36.46.64-13.19,4.62-25,20.89-24.26,14.86.71,15.1,12.58,16.52,24C1743.15,201.09,1735,215.7,1749.16,225.61Z"/><path class="cls-10" d="M1885.45,245.55q0-10.14,0-20.26c.3-18.52-.72-37.19,1.32-55.53,1.7-15.29,6.41-31.08,28.42-18.76q.21,84.21.44,168.43c-20.1,8.69-27.65-2.24-29-19.42C1885.23,281.93,1885.77,263.71,1885.45,245.55Z"/><path class="cls-11" d="M1703.47,225.44v20c-2.3,2.51-6.25,4.8-6.63,7.57-1.78,13,.33,29.92-18.65,30.07-18.74.14-17.09-16.94-19.74-29.73-.52-2.51-5.21-4.17-8-6.23a28.13,28.13,0,0,0,0-23.34c17.84-5.88,1.89-37.11,27.65-36.47C1704.37,187.93,1688,217.2,1703.47,225.44Z"/><path class="cls-12" d="M1915.64,319.43q-.23-84.23-.44-168.43c21.48,21.3-4.3,52.56,16,74.1v20.65C1911.12,267.24,1936.31,298.05,1915.64,319.43Z"/><text class="cls-13" transform="translate(1683.94 456.86)">Asociación Colombiana de <tspan x="46.26" y="98.59">Sonido Cinematográfico</tspan></text><path class="cls-14" d="M238.94,515.06a.84.84,0,0,0,0,.47H215.36a.72.72,0,0,0,0-.48Z"/><path class="cls-15" d="M17.43,201.5c1.74-5.79,4.56-11.11,7.34-16.42q39.39-75.23,118-107.58A216.84,216.84,0,0,1,199.08,63a218.29,218.29,0,0,1,31.49-1.77c51,1.17,96.79,17.14,137.07,48.55a229.09,229.09,0,0,1,40.11,40.49c1.39,1.79,1.26,2.44-.73,3.57Q359.3,181,311.68,208.23c-.72.41-1.39.91-2.08,1.37h-.73c-.72-.8-1.41-1.64-2.18-2.39a113.5,113.5,0,0,0-98.19-30.52c-27,4.66-49.56,17.54-67.45,38.31a110.23,110.23,0,0,0-23.13,43.67.3.3,0,0,1-.28.09c-2.21-1.33-4.39-2.71-6.63-4Q78.4,236.12,45.77,217.51C36.34,212.14,26.88,206.83,17.43,201.5Z"/><path class="cls-16" d="M238.94,515.06H215.38a225.43,225.43,0,0,1-130.88-50A226.38,226.38,0,0,1,18.33,378c-.32-.75-.5-1.57-.75-2.36a7.68,7.68,0,0,0,3-1.3c6.6-3.76,13.18-7.55,19.77-11.31l36.52-20.83q20.43-11.65,40.84-23.35l.15,0,.14.06a110.85,110.85,0,0,0,39.31,59C183,398,212.32,405.63,244.57,401A109.57,109.57,0,0,0,304,372.61c1.7-1.55,3.8-2.75,4.73-5h.84c3.43,2.69,7.37,4.53,11.12,6.68q42.94,24.57,86,49c1.79,1,2.15,1.72.76,3.49-33.11,42.14-75.6,69.79-127.69,82.56A211,211,0,0,1,238.94,515.06Z"/><path class="cls-17" d="M309.6,367.57h-.84c-.59-.32-1.18-.62-1.76-.95q-40.68-23.2-81.36-46.43-27.51-15.72-55-31.48v-.22c.37-.19.76-.36,1.12-.56q43.57-24.88,87.15-49.76,25-14.27,49.95-28.59h.73a130.1,130.1,0,0,1,17.21,23.33,111.39,111.39,0,0,1,14.09,45.8C343.54,312.94,332.93,342.49,309.6,367.57Z"/><path class="cls-14" d="M117.66,318.84q-20.43,11.69-40.84,23.35L40.3,363c-6.59,3.76-13.17,7.55-19.77,11.31a7.68,7.68,0,0,1-3,1.3c-3.23-6.42-5.35-13.25-7.52-20.06a214.25,214.25,0,0,1-6.75-28.12A234,234,0,0,1,.43,302.94c-.4-6.33-.49-12.66-.4-19a223.09,223.09,0,0,1,5.64-46.47A218.18,218.18,0,0,1,16.56,203a11,11,0,0,1,.87-1.48c9.45,5.33,18.91,10.64,28.34,16q32.64,18.6,65.24,37.25c2.24,1.28,4.42,2.66,6.63,4a117.34,117.34,0,0,0-4,31.3A120.66,120.66,0,0,0,117.66,318.84Z"/><path class="cls-17" d="M994.35,241.72v2.45q0,42.63,0,85.25c0,2.28-.57,3.07-2.92,3-3.92-.19-7.87-.17-11.79,0-2.18.09-2.86-.52-2.84-2.78.11-11.95,0-23.9,0-35.86v-1.94l-.44-.2-7.7,10.9c-6.26,8.87-12.58,17.71-18.73,26.66-1.41,2.06-1.94,1.62-3.17-.09-8-11.14-16.05-22.21-24.1-33.3-.38-.53-.79-1-1.23-1.61-.73.68-.39,1.46-.39,2.14,0,11.2-.07,22.4,0,33.59,0,2-.59,2.56-2.54,2.49q-5.89-.21-11.79,0c-1.89.06-2.4-.53-2.39-2.4.07-16.13,0-32.26,0-48.39q0-18.56,0-37.11a4.1,4.1,0,0,1,.37-2.63c3.11,4.39,6.15,8.64,9.16,12.9q16.61,23.56,33.17,47.15c1.34,1.91,1.94,1.51,3.1-.1q21-29.21,42.12-58.32C992.85,242.89,993.1,242.1,994.35,241.72Z"/><path class="cls-17" d="M890.41,409.81c0,15.95,0,31.9.15,47.85,0,2.21-.51,2.87-2.75,2.76a112.45,112.45,0,0,0-12,0c-2.44.13-2.82-.79-2.82-3q.1-40,0-80c0-2,0-4,0-6,0-.55-.3-1.28.35-1.59s1,.37,1.43.75q5.37,4.89,10.73,9.8l47.83,43.85c.25.23.52.41,1.26,1,0-3.74.16-7.09,0-10.42-.51-8.51-.13-17-.33-25.54-.11-4.68,0-9.36-.11-14,0-1.58.33-2.23,2.06-2.19,4.51.12,9,.08,13.54,0,1.31,0,2,.24,2,1.77q-.08,44.11-.06,88.22a2.61,2.61,0,0,1-.22.63c-1.5-.41-2.42-1.64-3.47-2.58q-27.27-24.57-54.5-49.2c-.92-.83-2-1.54-2.93-2.3l-.29-.18Z"/><path class="cls-17" d="M1261,281.08c0,7,0,13.36,0,19.77.07,9.61.16,19.21.35,28.81,0,2.06-.54,2.79-2.66,2.71-4.18-.15-8.37-.11-12.55,0-1.64,0-2.35-.3-2.35-2.18q.09-43.24.06-86.5c0-.62-.38-1.48.39-1.81s1.15.52,1.61.94q17.94,16.41,35.85,32.86l22.19,20.3c.29.26.62.47,1,.73a3.26,3.26,0,0,0,.33-2.28q0-21.82-.11-43.63c0-.25,0-.5,0-.75-.22-5.18-.22-5.18,5.07-5.18,3.26,0,6.53.11,9.79,0,1.89-.08,2.4.52,2.39,2.4-.08,15.88,0,31.76,0,47.64q0,19.18,0,38.37c0,.7.39,1.69-.36,2.06s-1.26-.61-1.78-1.07q-28.5-25.68-57-51.38C1262.59,282.35,1262,281.9,1261,281.08Z"/><path class="cls-17" d="M1069.17,286.22a70.57,70.57,0,0,1,7,4.71c11.22,8.82,9.3,31-5.79,37.63a46.78,46.78,0,0,1-18.26,3.73c-8.61.14-17.23,0-25.84.08-2.14,0-2.65-.69-2.65-2.72q.09-41.11,0-82.23c0-1.92.45-2.65,2.51-2.6,9.36.24,18.73-.28,28.08.37a36.59,36.59,0,0,1,13.75,3.49A19.65,19.65,0,0,1,1079,270C1077.84,277.47,1075.82,280.83,1069.17,286.22ZM1041,306.64v7.76c0,.76,0,1.6,1.08,1.56,5.4-.19,10.89.78,16.19-.76,3.63-1.05,6.48-3.16,6.93-7.33.6-5.46-2-8.79-7.86-10-5-1-10-.45-15-.59-1.16,0-1.37.6-1.36,1.57C1041.05,301.46,1041,304.05,1041,306.64Zm0-35.74c0,2.5,0,5,0,7.5,0,1.41.25,2.16,1.9,2.1,3.25-.11,6.51.05,9.76-.09,4.63-.19,8.09-3.77,8.5-8.57.43-5.08-1.88-8.43-6.71-9.62-4-1-8.14-.34-12.21-.51-1.28,0-1.22.83-1.22,1.69Z"/><path class="cls-17" d="M647.07,244.14c23-.64,44.71,19.88,44.61,44.8-.1,25.26-22.13,44.61-45.17,44.2a44.49,44.49,0,0,1-44-44.87C602.56,262.94,624.56,243.34,647.07,244.14ZM620.38,289a23.35,23.35,0,0,0,.57,5.48c3.86,18.17,22.74,26.62,37.66,19.39,11.3-5.47,17-17.83,14.55-31.18-2.88-15.67-18.86-25.52-33.82-20.86C628,265.38,620.42,276.08,620.38,289Z"/><path class="cls-17" d="M835.71,244.15c24.21,0,44.68,20.4,44.59,44.57-.1,26.19-22.65,44.68-45.2,44.46-23.63-.24-44.5-20.27-44.06-45.19C791.46,264.12,812,243.47,835.71,244.15ZM809,288.51a35.16,35.16,0,0,0,.65,6.71c3.92,18.8,26.5,27.62,41.76,16.06,9-6.81,12-16.27,10.51-27.3a26.71,26.71,0,0,0-32.53-22.54C817.53,264.24,809.14,275.37,809,288.51Z"/><path class="cls-17" d="M981,416.89c0-13.62,0-27.24,0-40.86,0-2.32.65-2.93,2.95-2.92q27,.13,53.94,0c2.38,0,3,.72,2.85,2.95a111.48,111.48,0,0,0,0,11.27c.13,2.32-.71,2.75-2.84,2.73-12.21-.1-24.42,0-36.63-.11-2.34,0-3,.67-2.87,2.93.18,4.25.16,8.52,0,12.78-.08,2,.44,2.69,2.59,2.67,10.7-.11,21.41,0,32.11-.11,2.42,0,3,.77,2.88,3-.15,3.84-.13,7.69,0,11.53.06,1.89-.59,2.43-2.44,2.41-10.87-.07-21.74,0-32.62-.08-1.95,0-2.58.5-2.52,2.5.14,4.59.16,9.2,0,13.79-.08,2.09.7,2.45,2.57,2.44,13-.08,25.93,0,38.89-.09,2.07,0,2.75.52,2.66,2.64-.16,3.92-.12,7.85,0,11.78,0,1.71-.41,2.29-2.21,2.28q-28.49-.09-56.95,0c-1.94,0-2.36-.59-2.35-2.41C981,444.29,981,430.59,981,416.89Z"/><path class="cls-17" d="M1050.13,116.18v2.16c0,27.66,0,55.32,0,83,0,2.22-.56,2.95-2.78,2.74a38.25,38.25,0,0,0-6.51,0c-2,.15-2.36-.58-2.35-2.41.08-13,0-26.07,0-39.11V149.82l-.45-.23c-1.94,2.73-3.89,5.46-5.82,8.19q-11.79,16.68-23.58,33.36c-1.67,2.35-1.67,2.33-3.3.06Q991.72,172,978,152.91c-.42-.59-.88-1.14-1.79-2.32v3.31c0,15.8-.05,31.6,0,47.39,0,2.24-.64,3-2.84,2.77a37.81,37.81,0,0,0-6,0c-1.9.13-2.74-.36-2.57-2.45.19-2.41.05-4.85.05-7.27V116.22l.54-.22,41.81,59.11,42.35-59.06Z"/><path class="cls-17" d="M1213.81,332.33c-2.6,0-5.19-.09-7.78,0a2.48,2.48,0,0,1-2.75-1.92c-1.67-4.45-3.49-8.84-5.16-13.29a2.45,2.45,0,0,0-2.71-1.91q-12.42.12-24.83,0a2.73,2.73,0,0,0-3,2c-1.77,4.42-3.7,8.76-5.44,13.19a2.52,2.52,0,0,1-2.76,1.91q-6.53-.11-13,0c-1.66,0-2.05-.32-1.34-2q18.95-43.47,37.82-87c.28-.64.35-1.62,1.29-1.67,1.16-.07,1.14,1.1,1.43,1.78q18.8,43.12,37.53,86.28c1.08,2.5,1.06,2.52-1.78,2.52Zm-30.54-52.63c-2.82,6.8-5.43,13.09-8,19.39-.64,1.56.37,1.64,1.5,1.64,4.26,0,8.52-.05,12.77,0,1.84,0,1.87-.66,1.28-2.12C1188.31,292.53,1185.92,286.4,1183.27,279.7Z"/><path class="cls-17" d="M1411.67,332.33c-2.68,0-5.35-.06-8,0a2.45,2.45,0,0,1-2.73-1.93c-1.66-4.45-3.53-8.82-5.21-13.27a2.48,2.48,0,0,0-2.72-1.91q-12.54.11-25.09,0a2.37,2.37,0,0,0-2.57,1.78c-1.76,4.41-3.71,8.76-5.43,13.18-.61,1.56-1.37,2.22-3.1,2.17-4.18-.13-8.36-.12-12.54,0-2,.05-2.22-.6-1.47-2.32q14.48-33.15,28.86-66.32,4.35-10,8.7-20c.35-.78.33-2,1.52-2s1.09,1.16,1.4,1.87q18.83,43.26,37.62,86.52c.79,1.81.53,2.31-1.44,2.22C1416.86,332.23,1414.26,332.33,1411.67,332.33Zm-30.8-52.63c-2.9,7-5.49,13.3-8.13,19.58-.53,1.26,0,1.45,1.07,1.45q6.9,0,13.79,0c1.14,0,1.49-.34,1-1.5C1386.11,293,1383.65,286.71,1380.87,279.7Z"/><path class="cls-17" d="M731.26,418.44c.15-14,3.64-25.6,13-34.82s20.83-12.17,33.58-11.25a51.16,51.16,0,0,1,20.48,6.11c1.58.83,2,1.61,1.24,3.29q-2.62,5.82-4.92,11.78c-.72,1.87-1.31,2.48-3.25,1.1a29.58,29.58,0,0,0-14.07-5.52,24.23,24.23,0,0,0-24.89,14.16c-5.18,11.37-4.42,22.47,3.18,32.6,3.88,5.18,9.5,7.76,15.93,8.46,8.2.9,15.78-.67,22.37-5.9.8-.63,1.23-.55,1.65.38,2,4.4,4,8.81,6.1,13.18.69,1.43-.36,1.78-1.15,2.27a44.47,44.47,0,0,1-19.95,6.85c-11.58,1-22.54-1-32.08-8C736.49,444.2,731.48,431.86,731.26,418.44Z"/><path class="cls-17" d="M561,333.16c-19.76-.18-32.85-5.91-41.53-19.75-10.78-17.19-8.27-42.69,5.46-57.08,7.25-7.6,16.28-11.43,26.71-12.14a51.59,51.59,0,0,1,28.27,6.06c1.69.9,2,1.72,1.19,3.45-1.83,4-3.51,8.12-5.12,12.23-.61,1.55-1.08,1.84-2.55.8a29.67,29.67,0,0,0-17.48-6c-11,0-21.35,8.16-24,19.87-2.41,10.57-1.14,20.66,7,28.84,6.06,6.12,13.68,7.58,21.94,6.74a27.7,27.7,0,0,0,14.46-5.76c1-.78,1.52-.62,2,.51,1.88,4.18,3.77,8.36,5.77,12.49.73,1.51,0,2.12-1.13,2.76C574.27,330.74,566.11,333.33,561,333.16Z"/><path class="cls-17" d="M519.11,417.52c0-13.45,0-26.9,0-40.36,0-1.93.44-2.6,2.49-2.54,9.6.31,19.21-.25,28.82.46a41.37,41.37,0,0,1,38.49,36.54c1.44,11.74-.33,22.69-7.59,32.28-8.08,10.68-19.15,15.92-32.39,16.4-9.18.33-18.39,0-27.59.1-1.79,0-2.23-.54-2.22-2.27C519.14,444.6,519.11,431.06,519.11,417.52Zm11.83-.29c0,9.78,0,19.56,0,29.33,0,1.81.41,2.52,2.36,2.46,4.51-.13,9,.07,13.54-.07,8.2-.25,15.61-2.69,21.64-8.49,7.16-6.88,9.19-15.57,8.85-25.14a29.93,29.93,0,0,0-22.56-28.25c-7.1-1.85-14.32-.73-21.47-1.11-1.95-.11-2.38.64-2.36,2.44C531,398,530.94,407.62,530.94,417.23Z"/><path class="cls-17" d="M784.09,161.07c0-13.37,0-26.74-.05-40.11,0-2,.38-2.73,2.56-2.69,8.36.16,16.74-.16,25.09.18,13.94.57,26.06,5.45,34.41,17.11,6.72,9.38,9,20.13,7.81,31.6a39.1,39.1,0,0,1-17.74,29.71A42.32,42.32,0,0,1,812.51,204c-8.7.09-17.4,0-26.1.06-1.89,0-2.38-.51-2.37-2.38C784.12,188.15,784.09,174.61,784.09,161.07Zm21.39,31.55v-.06c2.59,0,5.21.2,7.78,0,9.18-.82,17.23-4.05,22.94-11.67,5.34-7.14,6.59-15.29,5.73-24A29.61,29.61,0,0,0,820,130.77c-7.24-2-14.62-1.07-21.94-1.38-1.87-.08-2.43.46-2.41,2.37.11,7.6.05,15.21.05,22.81,0,11.79.06,23.58-.06,35.36,0,2.28.65,2.9,2.82,2.73C800.79,192.47,803.14,192.62,805.48,192.62Z"/><path class="cls-17" d="M615.49,417.38c0-13.37,0-26.73,0-40.1,0-2.07.52-2.67,2.63-2.66q25.33.13,50.68,0c2.25,0,3,.64,2.78,2.82a37.81,37.81,0,0,0,0,6c.14,2-.52,2.59-2.53,2.57-12.13-.09-24.26,0-36.38,0h-2c-3.28,0-3.29,0-3.29,3.2,0,6.77.06,13.54,0,20.31,0,1.75.5,2.26,2.26,2.25,11.54-.07,23.08,0,34.62-.08,1.94,0,2.68.45,2.51,2.47a43,43,0,0,0,0,6.52c.13,1.83-.6,2.2-2.29,2.19-11.37-.07-22.74,0-34.12-.08-2.18,0-3,.4-3,2.84q.27,10.27,0,20.55c-.06,2.41.77,2.88,3,2.87,13-.1,26.1,0,39.14,0,4.31,0,3.67-.22,3.71,3.82,0,1.76-.13,3.52,0,5.26.19,1.94-.56,2.36-2.4,2.35-12-.08-23.92,0-35.88,0-5.68,0-11.37-.09-17.06,0-1.94,0-2.34-.6-2.33-2.42C615.52,444.46,615.49,430.92,615.49,417.38Z"/><path class="cls-17" d="M880.46,161.06c0-13.45,0-26.9,0-40.36,0-1.79.35-2.43,2.31-2.42q25.59.12,51.19,0c1.66,0,2.43.3,2.3,2.16a49.2,49.2,0,0,0,0,6.76c.11,1.77-.49,2.26-2.24,2.25-13.05-.07-26.1,0-39.15-.09-2.15,0-2.87.44-2.82,2.73.17,7,.12,14,0,21.06,0,1.77.52,2.25,2.27,2.24,11.46-.07,22.92.05,34.38-.1,2.5,0,3.21.72,3,3.09a30,30,0,0,0,0,5.76c.16,1.92-.54,2.37-2.39,2.36-11.46-.09-22.92,0-34.38-.1-2.38,0-2.89.71-2.85,2.93.14,6.93.13,13.87,0,20.81,0,2,.57,2.51,2.53,2.5,13.46-.08,26.93,0,40.39-.11,2.68,0,3.35.82,3.13,3.26a37.68,37.68,0,0,0,0,6c.11,1.81-.65,2.24-2.35,2.24q-26.46-.08-52.94,0c-1.9,0-2.37-.54-2.36-2.39C880.5,188.14,880.46,174.6,880.46,161.06Z"/><path class="cls-17" d="M715.82,288.34c0-13.7,0-27.41,0-41.11,0-1.84.42-2.48,2.35-2.41,3.92.15,7.87.19,11.79,0,2.36-.12,3.1.5,3.09,3-.1,21.47-.06,43-.06,64.42,0,3.28,0,3.28,3.17,3.28,11.79,0,23.58.05,35.37-.05,2.13,0,2.68.62,2.6,2.66-.15,4.09-.11,8.19,0,12.28,0,1.58-.52,2-2,2q-27.09-.06-54.19,0c-2,0-2.08-.88-2.08-2.42Q715.85,309.15,715.82,288.34Z"/><path class="cls-17" d="M761.19,204c-4.39,0-8.31-.05-12.23,0-1.42,0-1.59-1-1.94-1.87-2.4-6.05-4.86-12.07-7.11-18.17-.73-2-1.74-2.57-3.82-2.54-9.27.12-18.55.1-27.83,0a2.75,2.75,0,0,0-3.07,2.11c-2.41,6.22-5,12.37-7.45,18.57-.54,1.36-1.18,2-2.72,1.9a67.81,67.81,0,0,0-7.27,0c-2,.1-2.22-.48-1.47-2.25q9-21.18,17.86-42.43T722,116.93c.31-.72.35-1.91,1.3-1.94s1,1.17,1.32,1.88q15.49,36.78,30.93,73.58C757.33,194.82,759.16,199.19,761.19,204Zm-26.31-32.6-11.77-30.15-.63.1c-4,9.95-8.07,19.91-12.18,30Z"/><path class="cls-17" d="M1185.17,204c-6.43,0-6.43,0-8.76-5.86-1.9-4.81-3.87-9.59-5.68-14.44a2.89,2.89,0,0,0-3.22-2.26q-14.05.17-28.11,0a2.94,2.94,0,0,0-3.29,2.19c-2.38,6.14-5,12.22-7.36,18.36-.56,1.44-1.24,2.13-2.88,2a60.8,60.8,0,0,0-7.27,0c-2.15.14-2.07-.56-1.36-2.22,5.06-11.9,10-23.85,15-35.77q10.34-24.58,20.68-49.16c.31-.73.31-1.92,1.28-2s1,1.2,1.28,1.91q17.85,42.34,35.66,84.69c.9,2.13.36,2.66-1.75,2.49C1188,203.93,1186.59,204,1185.17,204Zm-31.38-63.49c-4.18,10.27-8.09,19.91-12,29.53-.51,1.24,0,1.43,1.08,1.43,7.1,0,14.19,0,21.29,0,1.63,0,1.56-.65,1-1.82-.72-1.68-1.34-3.41-2-5.11C1160.12,156.75,1157.06,148.93,1153.79,140.54Z"/><path class="cls-17" d="M579.61,204c-6.56,0-6.56,0-9-6.16-1.94-4.89-4-9.75-5.8-14.67a2.29,2.29,0,0,0-2.57-1.71q-14.55.09-29.11,0a2.32,2.32,0,0,0-2.54,1.77c-2.44,6.21-5,12.36-7.44,18.59-.64,1.66-1.5,2.35-3.31,2.21a45.77,45.77,0,0,0-6.52,0c-2.25.16-2.53-.54-1.69-2.51,4.56-10.67,9-21.38,13.52-32.07q11.05-26.31,22.12-52.62c.3-.71.3-1.89,1.35-1.88.87,0,.9,1.09,1.17,1.74q17.84,42.47,35.69,84.94c.86,2,.6,2.6-1.58,2.39C582.47,203.92,581,204,579.61,204ZM548,140.61c-4.28,10.54-8.34,20.56-12.52,30.88,7.67,0,15-.06,22.34,0,2.16,0,2.08-.73,1.43-2.34-2.78-7-5.46-14-8.2-21C550.15,145.82,549.18,143.46,548,140.61Z"/><path class="cls-17" d="M599.31,161.39c.63-17.09,6.93-31.16,22.7-39.29,14.45-7.44,29-6.11,43.26,1.3,1.11.57,1.38,1.17.83,2.34-1.2,2.57-2.34,5.17-3.36,7.82-.59,1.54-1.29,1.31-2.41.61a34.93,34.93,0,0,0-15.18-5.44c-9.68-.94-17.73,2.4-24.41,9.19-12.85,13.08-12.28,36.25,1.09,48.29,9.75,8.78,26.63,10,38.19,2.79,2.87-1.8,2.86-1.79,4.35,1.41.88,1.9,1.76,3.79,2.73,5.64a1.51,1.51,0,0,1-.67,2.4c-24.33,14.62-58.49,4.19-65.73-25.38A48.11,48.11,0,0,1,599.31,161.39Z"/><path class="cls-17" d="M1124.77,288.77c0,13.63,0,27.25,0,40.87,0,2-.47,2.82-2.63,2.73-4.1-.16-8.2-.11-12.3,0-1.75,0-2.51-.34-2.51-2.33q.09-41.37,0-82.73c0-2.12.78-2.52,2.63-2.47,4.1.1,8.2.14,12.3,0,2-.08,2.53.67,2.52,2.59C1124.74,261.2,1124.77,275,1124.77,288.77Z"/><path class="cls-17" d="M843.48,417c0,13.44-.09,26.88.07,40.33,0,2.64-.78,3.21-3.22,3.09-4-.2-8-.1-12,0-1.39,0-2.08-.19-2.08-1.87q.07-41.7,0-83.41c0-1.55.48-2,2-2,4.26.09,8.53.13,12.78,0,2-.07,2.53.6,2.52,2.54C843.44,389.44,843.48,403.22,843.48,417Z"/><path class="cls-17" d="M1081.75,161.14c0-13.44,0-26.89,0-40.33,0-1.91.4-2.71,2.45-2.52a36.47,36.47,0,0,0,6.27,0c2.21-.19,2.94.43,2.93,2.81-.11,19.38-.06,38.75-.06,58.12,0,7.52,0,15,0,22.55,0,1.69-.36,2.42-2.2,2.29a46.22,46.22,0,0,0-6.76,0c-2,.16-2.69-.46-2.67-2.59C1081.8,188,1081.75,174.59,1081.75,161.14Z"/><path class="cls-18" d="M117.92,258.66c7.85,4.42,15.71,8.81,23.55,13.25q14.61,8.26,29.18,16.59v.22L118,318.88l-.14-.06-.15,0a120.66,120.66,0,0,1-4-28.79,117.34,117.34,0,0,1,4-31.3A.3.3,0,0,0,117.92,258.66Z"/><path class="cls-19" d="M890.41,409.81l-.17-.31.29.18Z"/></g></g></svg>