<svg xmlns="http://www.w3.org/2000/svg" viewBox="0 0 3283.46 917.76"><defs><style>.cls-1{fill:#ffcb05;}.cls-1,.cls-5{fill-rule:evenodd;}.cls-2{font-size:124.9px;fill:#fff;font-family:Roboto-Bold, Roboto;font-weight:700;}.cls-3{letter-spacing:-0.09em;}.cls-4{fill:#1a1b1c;}.cls-5{fill:#5e5e6b;}.cls-6{letter-spacing:-0.01em;}.cls-7{letter-spacing:-0.05em;}.cls-8{letter-spacing:0.01em;}</style></defs><g id="Layer_2" data-name="Layer 2"><g id="Layer_1-2" data-name="Layer 1"><path class="cls-1" d="M917.21,458.43v-.2h0C913.06,206.89,710,4,458.65,0h-.08C207.18,4,4.14,206.88,0,458.23H0a1.27,1.27,0,0,0,0,.2,1.55,1.55,0,0,0,0,.21H0C4.14,710,207.21,913,458.65,916.87h0C710,912.92,913.06,710,917.21,458.64h0ZM458.61,804.56c-189.45-3.9-342.3-156.69-346.3-346.13,4-189.43,156.85-342.22,346.3-346.12C648.06,116.21,800.9,269,804.89,458.43,800.9,647.87,648.05,800.66,458.61,804.56Z"/><text class="cls-2" transform="translate(190.46 499.87)">ES<tspan class="cls-3" x="146.67" y="0">P</tspan><tspan x="215.4" y="0">AÑOL</tspan></text><path class="cls-1" d="M2095.92,458.43v-.2h0C2091.77,206.89,1888.74,4,1637.36,0h-.09c-251.38,4-454.42,206.88-458.54,458.23h0a1.27,1.27,0,0,0,0,.2,1.55,1.55,0,0,0,0,.21h0C1182.85,710,1385.92,913,1637.36,916.87h0c251.38-3.94,454.41-206.87,458.56-458.22h0Zm-458.6,346.13c-189.45-3.9-342.3-156.69-346.3-346.13,4-189.43,156.85-342.22,346.3-346.12,189.45,3.9,342.29,156.7,346.28,346.12C1979.61,647.87,1826.76,800.66,1637.32,804.56Z"/><text class="cls-2" transform="translate(1382.26 499.87)">ENGLISH</text><path class="cls-1" d="M3283.45,461.67v-.2h0c-4.11-249.56-205.71-451.06-455.32-455h-.08c-249.75,3.94-451.43,205.64-455.32,455.4h111.51c3.86-188.19,155.67-340,343.85-343.89,188.12,3.88,339.89,155.6,343.84,343.68-4,188.12-155.75,339.83-343.88,343.69V916.87c249.65-3.89,451.29-205.4,455.4-455h0C3283.46,461.81,3283.45,461.75,3283.45,461.67Z"/><path class="cls-4" d="M2767.16,824.05c-160.25-3.24-289.54-130.82-292.83-289h-95c3.31,209.89,175.1,379.4,387.79,382.67Z"/><path class="cls-5" d="M2767.16,824.05c-160.25-3.24-289.54-130.82-292.83-289h-95c3.31,209.89,175.1,379.4,387.79,382.67Z"/><text class="cls-2" transform="translate(2559.37 505.91)"><tspan class="cls-6">I</tspan><tspan class="cls-7" x="34.88" y="0">T</tspan><tspan x="99.89" y="0">AL</tspan><tspan class="cls-8" x="248.76" y="0">I</tspan><tspan x="286.51" y="0">ANO</tspan></text></g></g></svg>